<svg xmlns="http://www.w3.org/2000/svg" width="606.8571428571429" height="167.57142857142867" fill="#161616"><rect id="backgroundrect" width="100%" height="100%" x="0" y="0" fill="none" stroke="none"/><g class="currentLayer" style=""><title>Layer 1</title><g class=""><path d="M240.38577827959375,106.79745681186785 h-7.8374947185516355 c-0.5245567331314088,0 -1.0182571878433233,0.24685022735595713 -1.3371053981781007,0.6685526990890504 c-4.551301066875459,6.726668695449829 -12.239657106399536,11.149401935577393 -20.982269325256347,11.149401935577393 c-13.9881795501709,0 -25.317576443195343,-11.334539606094362 -25.317576443195343,-25.317576443195343 s11.334539606094362,-25.317576443195343 25.317576443195343,-25.317576443195343 a25.302148303985597,25.302148303985597 0 0 1 20.982269325256347,11.154544648647308 c0.318848210334778,0.4114170455932619 0.8125486650466923,0.6685526990890504 1.3371053981781007,0.6685526990890504 h7.8374947185516355 a1.6970953130722055,1.6970953130722055 0 0 0 1.506814929485322,-2.442788708209992 a35.43329305171967,35.43329305171967 0 0 0 -31.65854165840149,-19.501167961120604 c-19.573165944099426,0 -35.44872119092941,15.87041253376007 -35.44872119092941,35.44872119092941 s15.87041253376007,35.44872119092941 35.44872119092941,35.44872119092941 a35.43329305171967,35.43329305171967 0 0 0 31.653398945331574,-19.501167961120604 c0.12342511367797857,-0.23656480121612566 0.18513767051696783,-0.4937004547119145 0.18513767051696783,-0.7559788212776188 a1.6970953130722055,1.6970953130722055 0 0 0 -1.6919526000022898,-1.686809886932374 zm23.63076655626297,-60.76629763412476 c0,8.9997478723526 -13.504764521598817,8.9997478723526 -13.504764521598817,0 s13.504764521598817,-8.9997478723526 13.504764521598817,0 zM262.3348776619943,125.36265099426377 v-65.82672729492188 H252.2037329142602 v65.82672729492188 a1.6970953130722055,1.6970953130722055 0 0 0 1.686809886932374,1.686809886932374 h6.752382260799409 a1.6970953130722055,1.6970953130722055 0 0 0 1.686809886932374,-1.686809886932374 zm43.918769617080684,-67.47239547729492 c-10.213428156852721,0.48341502857208296 -18.37491379880905,5.36384973192215 -23.656480121612546,12.815640970230103 v-9.483162900924683 a1.6970953130722055,1.6970953130722055 0 0 0 -1.686809886932374,-1.686809886932374 H274.16311772280056 a1.6970953130722055,1.6970953130722055 0 0 0 -1.686809886932374,1.686809886932374 V125.36265099426377 c0,0.9256883525848393 0.750836108207703,1.686809886932374 1.686809886932374,1.686809886932374 h6.752382260799409 a1.6970953130722055,1.6970953130722055 0 0 0 1.686809886932374,-1.686809886932374 v-32.06995870399475 c0,-13.371053981781007 10.439707531929015,-24.391888090610507 23.63076655626297,-25.26100659942627 a1.6970953130722055,1.6970953130722055 0 0 0 1.6919526000022898,-1.6919526000022898 v-6.7678104000091555 a1.6970953130722055,1.6970953130722055 0 0 0 -1.6610963215827952,-1.686809886932374 zm67.2666869544983,48.85577416419983 h-7.8374947185516355 c-0.5245567331314088,0 -1.0182571878433233,0.24685022735595713 -1.3371053981781007,0.6685526990890504 c-4.551301066875459,6.726668695449829 -12.239657106399536,11.149401935577393 -20.982269325256347,11.149401935577393 c-13.9881795501709,0 -25.317576443195343,-11.334539606094362 -25.317576443195343,-25.317576443195343 s11.334539606094362,-25.317576443195343 25.317576443195343,-25.317576443195343 c8.732326792716982,0 16.425825545310975,4.422733240127565 20.982269325256347,11.159687361717223 c0.318848210334778,0.4114170455932619 0.8125486650466923,0.6685526990890504 1.3371053981781007,0.6685526990890504 H373.5717613642724 a1.6970953130722055,1.6970953130722055 0 0 0 1.6919526000022898,-1.686809886932374 a1.6456681823730477,1.6456681823730477 0 0 0 -0.18513767051696783,-0.7559788212776188 a35.43329305171967,35.43329305171967 0 0 0 -31.653398945331574,-19.501167961120604 c-19.57830865716934,0 -35.44872119092941,15.87041253376007 -35.44872119092941,35.44872119092941 s15.87041253376007,35.44872119092941 35.44872119092941,35.44872119092941 a35.43329305171967,35.43329305171967 0 0 0 31.653398945331574,-19.501167961120604 c0.12342511367797857,-0.23656480121612566 0.18513767051696783,-0.4937004547119145 0.18513767051696783,-0.7559788212776188 a1.6970953130722055,1.6970953130722055 0 0 0 -1.6919526000022898,-1.686809886932374 zm20.26228949546814,-69.20548978185654 h-6.752382260799409 a1.6970953130722055,1.6970953130722055 0 0 0 -1.686809886932374,1.686809886932374 v86.08901679039 a1.6970953130722055,1.6970953130722055 0 0 0 1.686809886932374,1.686809886932374 h6.752382260799409 a1.6970953130722055,1.6970953130722055 0 0 0 1.686809886932374,-1.686809886932374 V39.27363420387377 a1.6970953130722055,1.6970953130722055 0 0 0 -1.686809886932374,-1.686809886932374 zm47.31296024322509,20.26228949546814 c-19.57830865716934,0 -35.44872119092941,15.87041253376007 -35.44872119092941,35.44872119092941 s15.87041253376007,35.44872119092941 35.44872119092941,35.44872119092941 a35.43329305171967,35.43329305171967 0 0 0 31.653398945331574,-19.501167961120604 c0.5811265769004824,-1.1211114492416385 -0.24170751428604137,-2.4582168474197394 -1.501672216415406,-2.442788708209992 H463.36353156500184 c-0.5399848723411561,0 -1.0439707531929017,0.2571356534957887 -1.3628189635276795,0.6942662644386292 c-4.551301066875459,6.706097843170166 -12.239657106399536,11.118545657157897 -20.95655575990677,11.118545657157897 c-12.836211822509766,0 -23.440486172676085,-9.555160883903504 -25.096439781188963,-21.9439566693306 h58.801781241416926 a1.6970953130722055,1.6970953130722055 0 0 0 1.6816671738624582,-1.6045264778137216 l0.05142713069915774,-1.7742360091209428 c0,-19.57830865716934 -15.87041253376007,-35.44872119092941 -35.443578477859496,-35.44872119092941 zm-24.402173516750338,28.696338930130004 c2.95706001520157,-10.696843185424806 12.753928413391113,-18.513767051696778 24.402173516750338,-18.513767051696778 s21.445113501548768,7.868350996971131 24.402173516750338,18.513767051696778 zm157.89157667255404,-50.6402955994606 c-13.504764521598817,0 -13.504764521598817,20.26228949546814 0,20.26228949546814 s13.504764521598817,-20.26228949546814 0,-20.26228949546814 zm8.434049434661866,23.63076655626297 v65.82672729492188 a1.6970953130722055,1.6970953130722055 0 0 1 -1.686809886932374,1.686809886932374 h-13.504764521598817 a1.6970953130722055,1.6970953130722055 0 0 1 -1.686809886932374,-1.686809886932374 v-65.82672729492188 zM522.0418876927407,128.73627076812855 c16.549250658988953,0 30.42943323469162,-11.339682319164277 34.34303788089752,-26.664967267513273 a1.5428139209747322,1.5428139209747322 0 0 0 0.0411417045593262,-0.3445617756843569 a1.6970953130722055,1.6970953130722055 0 0 0 -1.686809886932374,-1.686809886932374 h-14.286456908226013 a1.6970953130722055,1.6970953130722055 0 0 0 -1.5325284948349007,0.9874009094238285 c-2.9416318759918227,6.387249632835388 -9.385451352596284,10.8254110121727 -16.87838429546356,10.8254110121727 a18.56519418239594,18.56519418239594 0 1 1 16.873241582393646,-26.299834639549253 a1.6970953130722055,1.6970953130722055 0 0 0 1.5325284948349007,0.9822581963539128 h14.286456908226013 a1.6970953130722055,1.6970953130722055 0 0 0 1.686809886932374,-1.686809886932374 a1.6456681823730477,1.6456681823730477 0 0 0 -0.0411417045593262,-0.33941906261444116 c-3.908461933135988,-15.325284948349 -17.79378722190857,-26.67010998058319 -34.34303788089752,-26.67010998058319 c-19.573165944099426,0 -35.44872119092941,15.87041253376007 -35.44872119092941,35.44872119092941 s15.875555246829988,35.44872119092941 35.44872119092941,35.44872119092941 z" id="svg_1" class=""/><g id="svg_2" class=""><circle cx="-16.538352966308594" cy="-31.374813079833984" r="2.7300000190734863" transform="matrix(7.17779777136898,0,0,7.17779777136898,198.54041884640114,307.51703920574425) " stroke-width="0" id="svg_3"/><path d="M79.83146651776342,0.028711435409555598 c-38.343795694653096,0 -70.55775209255708,26.22767305658225 -79.69508865550978,61.7147052382305 a4.019566751966629,4.019566751966629 0 0 0 -0.13637815765601075,0.9761804969061821 c0,2.1533393314106952 1.7513826562140329,3.9190775831674665 3.9190775831674665,3.9190775831674665 h33.1829590970388 a3.876010796539252,3.876010796539252 0 0 0 3.5530098968276476,-2.296895286838074 s0.050244584399582924,-0.09331137102779677 0.07177797771368986,-0.14355595542737978 c6.840441276114639,-14.757552217934624 21.777438438333483,-25.000269637678155 39.11899785396094,-25.000269637678155 c23.808755207630906,0 43.10985341484209,19.29392040943982 43.10985341484209,43.10267561707073 s-19.29392040943982,43.10267561707073 -43.10267561707073,43.10267561707073 c-17.33438161785609,0 -32.27137878007493,-10.242717419743537 -39.11899785396094,-25.000269637678155 c-0.02153339331410697,-0.050244584399582924 -0.07177797771368986,-0.14355595542737978 -0.07177797771368986,-0.14355595542737978 c-0.6316462038804704,-1.3924927676455832 -2.024138971526053,-2.296895286838074 -3.5530098968276476,-2.296895286838074 h-33.1829590970388 c-2.1676949269534322,0 -3.9190775831674665,1.7513826562140329 -3.9190775831674665,3.9190775831674665 a3.876010796539252,3.876010796539252 0 0 0 0.13637815765601075,0.9761804969061821 c9.137336562952711,35.48703218164823 41.358470758628066,61.7147052382305 79.69508865550978,61.7147052382305 C125.28845980384317,164.56536974850067 162.19669594422245,127.7289115858351 162.19669594422245,82.28627389529807 s-36.84363596043697,-82.286273650974 -82.286273650974,-82.286273650974 z" stroke-width="0" id="svg_4"/></g></g></g></svg>